<?xml version="1.0" standalone="no"?>
<!DOCTYPE svg PUBLIC "-//W3C//DTD SVG 20010904//EN"
 "http://www.w3.org/TR/2001/REC-SVG-20010904/DTD/svg10.dtd">
<svg version="1.0" xmlns="http://www.w3.org/2000/svg"
 width="256.000000pt" height="256.000000pt" viewBox="0 0 256.000000 256.000000"
 preserveAspectRatio="xMidYMid meet">

<g transform="translate(0.000000,256.000000) scale(0.100000,-0.100000)"
fill="#000000" stroke="none">
<path d="M142 2418 c-8 -8 -12 -59 -12 -164 0 -188 -3 -184 137 -184 l93 0 0
-958 c0 -732 3 -961 12 -970 9 -9 219 -12 885 -12 852 0 873 0 883 19 7 13 10
334 10 970 l0 951 118 0 c168 0 162 -7 162 184 0 105 -4 156 -12 164 -17 17
-2259 17 -2276 0z m2188 -163 l0 -75 -1050 0 -1050 0 0 75 0 75 1050 0 1050 0
0 -75z m-1690 -1105 l0 -920 -90 0 -90 0 0 920 0 920 90 0 90 0 0 -920z m540
680 l0 -240 -220 0 -220 0 0 240 0 240 220 0 220 0 0 -240z m870 -680 l0 -920
-385 0 -385 0 0 920 0 920 385 0 385 0 0 -920z m-872 -294 l2 -626 -220 0
-220 0 0 624 0 625 23 3 c12 2 110 2 217 1 l195 -1 3 -626z"/>
<path d="M1462 1476 c-9 -5 -20 -14 -24 -20 -4 -6 -8 -142 -8 -301 0 -247 2
-294 16 -313 15 -21 20 -22 218 -22 144 0 205 3 214 12 18 18 17 621 -1 636
-16 14 -392 21 -415 8z m328 -326 l0 -230 -125 0 -125 0 0 230 0 230 125 0
125 0 0 -230z"/>
</g>
</svg>
