<svg version="1.1" id="Layer_1" xmlns="http://www.w3.org/2000/svg" xmlns:xlink="http://www.w3.org/1999/xlink" x="0px" y="0px"
	 width="100%" viewBox="0 0 592 592" enable-background="new 0 0 592 592" xml:space="preserve">
<path fill="#000000" opacity="1.000000" stroke="none" 
	d="
M249.085388,518.101929 
	C192.419373,498.075012 154.531937,459.686218 136.568436,402.968536 
	C115.102554,335.192566 137.907822,260.553070 193.732224,215.992249 
	C195.542786,214.546982 197.597305,213.296814 198.677246,211.128448 
	C199.388519,209.700287 200.575912,208.962784 201.913818,209.591965 
	C205.604218,211.327515 207.881531,208.915054 210.877487,207.487152 
	C214.840744,205.598221 219.430649,204.906570 223.821121,204.064957 
	C228.097229,203.245270 232.248993,202.248016 236.238449,200.423126 
	C242.957840,197.349442 248.357880,198.857452 252.039352,205.236496 
	C254.212509,209.002029 257.008392,209.870361 261.075897,209.876007 
	C272.741913,209.892227 284.068909,206.600067 295.722626,206.666885 
	C299.460510,206.688324 301.369934,204.682083 300.628479,200.892853 
	C299.216187,193.675095 298.230255,186.507919 299.521332,179.109695 
	C300.116211,175.700821 298.601532,173.201248 294.458771,173.576584 
	C273.660736,175.461014 253.218323,178.927673 233.826294,187.111206 
	C225.212357,190.746323 216.882278,194.906830 209.151672,200.210907 
	C207.961121,201.027771 206.611053,201.612122 204.046494,203.002380 
	C205.827484,199.078812 208.094971,197.577805 210.312943,196.041885 
	C230.681824,181.936493 253.387497,173.792343 277.683411,169.802673 
	C284.572968,168.671341 291.504822,167.385696 298.453339,167.122284 
	C308.709686,166.733490 316.527374,162.396576 322.922699,154.680527 
	C332.556061,143.057678 338.032562,130.322754 333.146332,115.105858 
	C329.617249,104.115379 322.717560,95.570351 312.483704,90.019737 
	C309.456482,88.377838 305.937714,88.672012 302.665527,89.292137 
	C297.744568,90.224709 292.849945,91.148293 287.815613,91.119553 
	C286.830383,91.113930 285.831055,91.355858 284.859283,91.576355 
	C278.099579,93.110146 276.140015,96.541229 278.326569,103.085915 
	C281.872009,113.698189 281.255646,124.035774 276.319153,134.084335 
	C275.462860,135.827362 274.746704,137.808655 271.966492,138.112976 
	C271.030579,134.548340 273.469849,131.814682 274.445679,128.986557 
	C276.769226,122.252670 277.213379,115.802185 274.986786,108.968323 
	C271.739685,99.002296 260.524200,94.077347 250.360443,96.183983 
	C237.358353,98.878906 226.317734,105.751991 214.282944,110.439003 
	C206.658936,113.408211 199.184402,115.538513 191.310562,110.840286 
	C188.187012,108.976501 184.849167,110.151688 182.056442,112.488007 
	C177.345001,116.429512 174.045792,121.401909 171.695465,126.989220 
	C169.700134,131.732590 172.000259,136.736282 177.438232,139.858734 
	C179.856476,141.247284 182.364716,142.473709 184.781281,145.103485 
	C181.307327,145.783493 178.808517,144.308578 176.319717,143.593170 
	C165.868103,140.588837 162.669556,143.575562 157.424057,153.247314 
	C153.259277,160.926453 154.028320,162.529556 160.395004,168.910477 
	C162.504761,171.024963 165.022583,172.738358 167.085541,174.892105 
	C170.428680,178.382385 172.151810,182.600693 172.206924,187.528717 
	C172.281982,194.241241 175.275864,199.257782 181.182846,202.618927 
	C185.516800,205.085022 187.999420,209.149460 190.356155,213.617584 
	C183.324371,218.681915 175.484604,219.769470 167.755081,219.935532 
	C157.464188,220.156662 147.565781,217.753983 138.871918,211.815033 
	C126.671364,203.480545 121.102348,191.591827 121.968323,177.125122 
	C122.984131,160.155457 131.236908,147.298752 146.884964,140.226089 
	C152.114395,137.862488 154.391388,135.596344 155.233414,129.462509 
	C157.751343,111.120506 168.878342,97.782539 183.975830,88.109627 
	C204.300659,75.087570 226.514297,71.683502 249.989761,77.925125 
	C255.169342,79.302269 260.078278,81.478127 264.389709,84.671150 
	C266.900482,86.530617 268.888672,86.652061 271.579712,84.976799 
	C304.473969,64.499184 339.953003,90.501442 342.063690,121.412758 
	C343.113159,136.782593 335.266907,159.346207 315.610565,166.007492 
	C309.230408,168.169647 307.561340,172.393097 306.508636,178.080002 
	C304.536163,188.735168 303.527527,187.536499 315.527313,188.588837 
	C382.716919,194.481155 430.385956,228.420868 455.824432,290.470917 
	C485.933533,363.913666 457.357758,446.593475 389.621613,488.041870 
	C368.904053,500.719147 346.358459,508.614960 321.972168,510.349365 
	C250.374100,515.441650 197.088470,486.159271 162.099442,423.873535 
	C151.229309,404.523071 145.893478,383.204346 144.563477,360.909454 
	C141.613800,311.464142 158.025818,269.430603 192.557281,234.253204 
	C195.933640,230.813705 199.628174,227.653488 203.401382,224.647812 
	C206.087082,222.508469 205.567719,220.605835 203.911575,218.270706 
	C201.793747,215.284607 200.149368,217.473190 198.608521,218.756424 
	C172.422379,240.564377 154.319427,267.762360 144.371353,300.366119 
	C138.528229,319.516296 136.036804,339.183014 137.501358,359.070831 
	C140.853653,404.593353 159.220505,443.206879 193.333008,473.707825 
	C222.218460,499.535065 256.221222,513.439453 295.097992,515.931274 
	C374.708923,521.033936 446.010803,467.101410 466.123383,393.128418 
	C488.331787,311.447174 446.299347,224.743027 368.224487,192.554688 
	C358.497375,188.544464 348.538208,185.367599 338.250610,183.185349 
	C336.981598,182.916138 335.767761,182.386734 334.148193,181.852509 
	C335.411987,180.425858 336.689911,180.662140 337.864716,180.906082 
	C396.872314,193.159714 439.503387,226.327713 464.963409,281.045929 
	C476.097992,304.976135 480.988007,330.441193 480.058258,356.738129 
	C477.055664,441.665588 416.852051,507.748993 339.578430,523.447571 
	C308.998993,529.659973 279.058807,527.584473 249.085388,518.101929 
M333.748962,328.214233 
	C336.663300,324.862457 340.440582,322.789642 344.467102,321.155731 
	C353.134155,317.638855 362.016724,314.836273 371.395386,314.068939 
	C390.233276,312.527771 408.307007,315.045868 424.819214,324.894470 
	C438.192657,332.870941 441.192749,343.572205 433.320892,356.980347 
	C425.311340,370.623138 415.587250,382.752045 400.458038,389.303894 
	C389.871460,393.888519 378.810669,398.247620 367.529053,398.698578 
	C350.579010,399.376190 334.462006,394.608185 321.416992,382.808746 
	C318.090607,379.799988 314.710876,378.789581 310.534607,379.393433 
	C307.735229,379.798187 304.914398,380.088287 302.138245,380.614807 
	C262.520996,388.128906 223.646011,398.582428 185.099472,410.313385 
	C178.765152,412.241119 176.560410,417.241760 178.888596,423.630096 
	C181.175049,429.903961 192.832047,437.988220 199.589264,437.900818 
	C200.726028,437.886108 201.998917,437.725098 202.966660,437.191986 
	C206.833649,435.061615 209.564438,436.598572 212.138947,439.532928 
	C213.667496,441.275177 215.308807,443.044647 217.232544,444.285309 
	C220.364441,446.305054 223.772446,446.766022 226.931808,444.131470 
	C232.779800,439.254944 235.251007,439.151672 241.354248,443.648193 
	C277.265900,470.106110 326.589478,472.371216 364.717194,449.298737 
	C383.761353,437.774414 398.093323,421.951355 407.829681,401.946228 
	C410.535553,396.386444 414.889771,394.370453 419.429413,396.548828 
	C423.833221,398.661957 425.085297,402.917511 422.494385,408.399200 
	C414.996399,424.263000 404.842804,438.228241 391.364960,449.506012 
	C363.094879,473.161377 330.727570,484.118683 293.702515,480.509003 
	C288.428894,479.994873 282.811951,477.871490 277.776947,481.875732 
	C276.629883,482.787964 274.873413,483.139343 274.774933,484.891266 
	C274.660278,486.932373 276.392944,487.676056 277.888458,488.364166 
	C283.787079,491.078186 289.740356,493.673584 295.633728,496.398682 
	C301.444672,499.085602 307.631439,500.062012 313.686646,498.429474 
	C326.480530,494.980133 339.529449,493.910400 352.633423,492.693909 
	C362.453461,491.782227 370.354584,486.158905 377.345917,479.645538 
	C383.658325,473.764679 389.329559,467.200684 395.410583,461.063843 
	C397.774170,458.678558 400.765320,457.064484 404.002075,456.141022 
	C409.349609,454.615356 413.494202,451.430481 416.873444,447.164886 
	C418.435913,445.192657 420.028900,443.307159 422.157715,441.910248 
	C428.226501,437.927887 432.498138,432.061646 437.290009,426.825928 
	C440.847260,422.939270 442.826538,417.971069 443.214294,412.305267 
	C443.794495,403.827881 443.011322,394.850952 449.560638,387.819305 
	C450.280823,387.046051 450.677673,385.644257 450.647034,384.550140 
	C450.367035,374.552643 454.392761,365.311920 455.601959,355.561279 
	C458.042694,335.879852 457.809723,316.394531 452.743195,297.120636 
	C450.261719,287.680634 442.799805,282.661163 433.255035,284.223663 
	C415.517334,287.127289 398.043030,291.301392 380.568359,295.460938 
	C354.764343,301.603119 329.826508,310.299347 305.499756,320.814117 
	C302.427490,322.142059 300.438629,323.563660 300.536224,327.746582 
	C300.643585,332.348969 298.930908,336.883545 294.992767,340.104919 
	C290.428802,343.838165 273.627930,348.147888 266.626282,346.903351 
	C271.972992,345.065521 276.539490,343.018341 281.324554,341.951691 
	C290.943298,339.807526 295.406616,333.883453 295.688660,324.324097 
	C295.818512,319.922424 298.194153,317.325165 302.302246,315.985748 
	C307.367676,314.334137 312.382782,312.527679 317.414337,310.772980 
	C328.953491,306.748962 340.489441,302.715698 352.026672,298.686157 
	C336.161987,303.007050 320.195953,306.866364 304.550049,311.973419 
	C296.752777,314.518555 292.758423,318.721741 292.459717,326.771149 
	C292.386780,328.736450 291.785492,330.683167 291.415466,332.636200 
	C291.013824,334.755981 289.680420,336.116974 287.901459,337.242004 
	C279.079346,342.821228 267.829773,343.074219 259.689911,350.130402 
	C235.210205,354.965698 210.730469,359.800903 186.250839,364.636627 
	C185.072220,364.869476 183.890396,365.116882 183.526337,363.410126 
	C184.529373,361.573700 186.517029,361.399139 188.200058,360.916260 
	C195.718231,358.759064 203.295929,356.809601 210.817642,354.664276 
	C224.579666,350.739136 238.459457,347.209839 251.977081,342.453949 
	C254.032272,341.730835 256.008331,340.807281 255.200882,338.328705 
	C254.363922,335.759613 252.158493,337.095215 250.488678,337.453003 
	C244.475006,338.741272 238.467117,340.059967 232.475159,341.445526 
	C216.262161,345.194580 200.058914,348.985840 183.850281,352.753784 
	C182.407471,353.089142 180.618271,353.774506 179.986343,351.842529 
	C179.237823,349.554138 181.243286,349.188904 182.849396,348.686523 
	C187.136353,347.345490 191.404358,345.943207 195.697708,344.623291 
	C212.222778,339.542908 228.761246,334.505981 245.275543,329.390900 
	C247.186798,328.798950 250.026733,328.667206 248.955673,325.353851 
	C247.940414,322.213074 245.452408,323.489716 243.513611,323.930450 
	C236.536621,325.516602 229.599289,327.276825 222.644226,328.959869 
	C208.575455,332.364410 194.509308,335.779938 180.428741,339.134949 
	C178.913208,339.496094 176.836884,340.388824 176.226562,338.056152 
	C175.731674,336.164612 177.704575,335.734497 179.018906,335.121460 
	C179.612183,334.844757 180.307541,334.796082 180.941422,334.595917 
	C201.888199,327.981476 222.840500,321.384247 243.768494,314.710754 
	C246.201614,313.934875 249.755707,313.299408 248.842056,309.807434 
	C247.745239,305.615417 244.481461,308.754089 242.168015,308.781067 
	C241.364059,308.790405 240.566513,309.201447 239.763000,309.417725 
	C218.867844,315.042175 197.977371,320.684143 177.065323,326.244995 
	C175.696014,326.609131 173.932785,328.003479 172.712845,325.688599 
	C173.315979,323.993866 174.908401,323.702759 176.252121,323.219421 
	C206.332718,312.399780 236.348343,301.403198 266.938416,292.046906 
	C276.397064,289.153900 284.664948,288.011017 291.010620,297.966705 
	C292.983124,301.061371 296.881927,303.033691 301.111420,300.771973 
	C308.351990,296.900116 316.106079,295.372955 324.201874,296.261719 
	C327.772247,296.653625 331.148560,296.433624 334.574951,295.621674 
	C361.648499,289.205963 388.273102,281.254425 414.537079,272.099091 
	C427.350494,267.632477 430.866333,254.250198 421.980347,244.047668 
	C415.833740,236.990417 408.949707,230.675385 401.533203,224.987427 
	C395.448730,220.321045 389.240051,215.525085 381.298584,214.711716 
	C374.406860,214.005875 367.786469,213.239151 362.549835,207.949677 
	C361.510559,206.899918 359.491608,206.772980 357.893768,206.331253 
	C349.940948,204.132721 342.066223,201.950775 334.394928,198.618195 
	C328.079163,195.874466 321.702118,192.151199 313.958923,193.339813 
	C307.643738,194.309235 305.985260,195.878815 308.142548,201.992340 
	C309.505981,205.856262 311.352692,209.549667 313.134094,213.669937 
	C308.611725,214.381210 306.340271,218.301086 301.534424,218.374954 
	C263.786743,218.955261 231.041962,232.174225 203.585159,258.226501 
	C202.990433,258.790802 202.293182,259.333527 201.288086,258.164154 
	C202.867279,254.098007 207.867340,251.767075 208.162308,246.751373 
	C204.687714,246.390640 204.398193,246.192474 203.781418,247.093567 
	C199.622986,253.168915 192.868774,254.895081 186.714508,257.769623 
	C180.952499,260.460968 176.029053,267.853149 177.554657,271.972839 
	C179.000061,275.876007 177.391495,277.516541 174.602509,279.219360 
	C165.831238,284.574768 162.298950,293.721985 161.506378,302.721802 
	C160.711288,311.750031 162.521210,321.219940 164.808945,330.253876 
	C165.398468,332.581787 165.624039,334.726318 165.276443,337.103424 
	C164.508209,342.357056 161.944839,346.768097 159.531052,351.363831 
	C153.292206,363.242310 153.235474,375.210907 161.309280,386.224976 
	C166.048889,392.690674 172.421097,395.994019 181.244232,394.141541 
	C202.402527,389.699249 223.565857,385.311340 244.581711,380.220795 
	C265.446625,375.166779 286.291412,370.060608 306.513885,362.742126 
	C309.689575,361.592865 312.560455,360.257874 313.740936,356.529053 
	C317.313507,345.244476 324.213562,336.205231 333.748962,328.214233 
M413.450745,370.951080 
	C415.081268,369.066071 416.768036,367.226166 418.325775,365.282776 
	C419.748932,363.507263 421.032410,361.619751 422.377411,359.781586 
	C401.682892,384.267365 374.791595,391.584656 343.633911,389.335419 
	C364.253143,395.101318 394.514069,390.375519 413.450745,370.951080 
z"/>
</svg>